<svg width="64" height="41" viewBox="0 0 64 41" fill="none" xmlns="http://www.w3.org/2000/svg">
    <path d="M25.8648 1.68463C24.3821 0.582625 22.6611 1.60217e-07 20.8876 1.60217e-07C18.1068 1.60217e-07 15.6709 1.736 14.3526 4.31763C13.0344 1.736 10.5986 1.60217e-07 7.81762 1.60217e-07C4.72137 1.60217e-07 1.85074 1.78125 0.138487 4.76488C-0.148139 5.26438 0.0244866 5.90163 0.523987 6.18838C1.02386 6.47501 1.66124 6.30263 1.94774 5.80288C3.28337 3.47525 5.47787 2.08575 7.81775 2.08575C10.846 2.08575 13.3098 5.06988 13.3098 8.73776C13.3098 9.31376 13.7766 9.78076 14.3528 9.78076C14.9289 9.78076 15.3958 9.31376 15.3958 8.73776C15.3958 5.06976 17.8595 2.08575 20.8878 2.08575C22.2096 2.08575 23.5003 2.52588 24.6204 3.35838C25.0826 3.702 25.736 3.60588 26.0796 3.1435C26.4233 2.68163 26.327 2.02825 25.8648 1.68463Z" transform="translate(22.306)" fill="#FEB900"/>
    <path d="M43.2156 3.87072C42.9939 3.33909 42.3833 3.08809 41.8515 3.30972L32.7351 7.11247C30.8996 7.87934 28.8479 7.95834 26.9567 7.33497L5.57398 0.289337C4.22772 -0.154913 2.77085 -0.085663 1.47335 0.483838L0.624845 0.85521C0.0970946 1.08634 -0.143155 1.70121 0.0878449 2.22884C0.318845 2.75659 0.933846 2.99696 1.46147 2.76596L2.31085 2.39421C3.13672 2.03146 4.0636 1.98734 4.92072 2.27021L26.304 9.31597C27.3594 9.66385 28.4547 9.83722 29.5484 9.83722C30.908 9.83722 32.265 9.5696 33.5388 9.03747L42.6546 5.23484C43.1861 5.01297 43.4374 4.40234 43.2156 3.87072Z" transform="translate(6.84863 30.7988)" fill="#FEB900"/>
    <path d="M63.6083 21.0304C63.6072 21.028 63.6022 21.016 63.601 21.0137L63.5932 20.9954C62.6545 18.8187 60.2899 17.6429 58.0242 18.1319C58.3113 17.203 58.2648 16.2127 57.8837 15.3054C57.4533 14.2805 56.649 13.486 55.6192 13.0684C55.6168 13.0674 55.5918 13.0575 55.5895 13.0565C53.5742 12.2556 51.2594 13.1595 50.3194 15.1137L47.034 21.9361L41.708 23.7996C40.714 24.1466 39.6201 24.1466 38.6285 23.7998L38.4761 23.7465C45.1829 20.0094 52.4069 13.6507 52.4069 6.90873C52.4069 4.55848 51.7615 2.33223 50.5405 0.470978C50.2248 -0.0106473 49.5778 -0.144898 49.0964 0.170978C48.6146 0.486978 48.4804 1.13335 48.7963 1.6151C49.7938 3.13561 50.3209 4.96611 50.3209 6.90873C50.3209 12.6294 43.5363 18.729 36.6584 22.36C34.8138 21.3867 32.9811 20.2311 31.3289 18.9976C29.9192 17.9489 28.6437 16.8437 27.5454 15.7262L38.1713 19.3599C40.2746 20.081 42.6183 19.0494 43.507 17.0125C43.982 15.9279 43.9846 14.6796 43.514 13.5879C43.0505 12.5127 42.1941 11.6914 41.1048 11.2757L22.2467 4.04211C22.111 3.98823 21.9626 3.93386 21.7805 3.87161C18.0806 2.60048 13.8625 3.18048 10.4976 5.42286L0.464842 12.1064C-0.0145337 12.4256 -0.144284 13.0732 0.175092 13.5526C0.494467 14.032 1.14197 14.1617 1.62134 13.8422L11.6541 7.15874C14.4815 5.27448 18.0137 4.78336 21.104 5.84473C21.2546 5.89636 21.3731 5.93948 21.488 5.98498L40.3593 13.2237C40.9196 13.4376 41.3598 13.8602 41.5984 14.4135C41.8446 14.9845 41.8439 15.6101 41.5956 16.1767C41.1378 17.2264 39.9304 17.7576 38.8469 17.3861L26.8755 13.2925C25.919 12.965 24.8807 13.0055 23.9517 13.406C22.7974 13.9039 21.9514 14.8849 21.6309 16.0976C21.0917 18.1344 22.2289 20.2764 24.2202 20.974L37.94 25.7684C39.375 26.2701 40.9571 26.2703 42.3958 25.7684L58.1255 20.2644C59.5293 19.7727 61.0893 20.4565 61.682 21.8309L61.6869 21.8424C61.9835 22.5438 61.9883 23.3185 61.7003 24.0238C61.4118 24.73 60.8648 25.281 60.1605 25.5749L51.761 29.0785C51.2295 29.3003 50.9783 29.9109 51.2 30.4425C51.367 30.8429 51.7546 31.0843 52.163 31.0843C52.2968 31.0843 52.4328 31.0583 52.5641 31.0036L60.9637 27.5C62.184 26.9908 63.1314 26.0365 63.6314 24.8126C64.1307 23.5901 64.1225 22.2467 63.6083 21.0304ZM24.909 19.0056C23.939 18.6657 23.3847 17.623 23.6472 16.6315C23.7765 16.143 24.0831 15.7339 24.5036 15.4692C25.9701 17.2579 27.8429 19.0042 30.0824 20.6702C30.2062 20.7628 30.3335 20.8535 30.4592 20.9451L24.909 19.0056ZM55.9663 17.6985L55.432 18.9976L49.8181 20.9619L52.1989 16.0185C52.6664 15.0465 53.8174 14.5966 54.819 14.9949C54.8204 14.9952 54.8336 15.0007 54.835 15.0011C55.3469 15.2087 55.7465 15.6036 55.9605 16.1131C56.1748 16.6232 56.1769 17.1864 55.9663 17.6985Z" transform="translate(0 3.75293)" fill="#FEB900"/>
</svg>
