<svg width="56" height="64" viewBox="0 0 56 64" fill="none" xmlns="http://www.w3.org/2000/svg">
    <rect width="55.9374" height="64" fill="white"/>
    <path d="M14.9299 14.8066C16.3124 13.7268 17.204 12.0459 17.204 10.1597V8.02671V5.89497C17.204 2.64449 14.5596 -4.7302e-07 11.3089 -4.7302e-07C8.05846 -4.7302e-07 5.41397 2.64449 5.41397 5.89497V8.02734V10.1597C5.41397 12.0458 6.30547 13.7267 7.68809 14.8064C3.27011 16.3454 -1.52587e-08 20.4744 -1.52587e-08 25.1338V28.4631C-1.52587e-08 28.9819 0.420499 29.4024 0.939246 29.4024H21.6789C22.1976 29.4024 22.6181 28.9819 22.6181 28.4631V25.1338C22.618 20.4744 19.3478 16.3454 14.9299 14.8066ZM7.60859 4.33335C8.21921 2.89236 9.64795 1.87874 11.3091 1.87874C12.9702 1.87874 14.3989 2.89224 15.0096 4.33335C15.2131 4.81373 15.3258 5.3416 15.3258 5.89522V6.93572C13.8088 6.43222 13.1709 4.84573 13.1413 4.76985C13.0111 4.42598 12.6921 4.18985 12.3252 4.16548C11.9591 4.14073 11.6109 4.33298 11.4364 4.6566C11.4246 4.67873 10.3096 6.67859 7.29271 7.03434V5.8951H7.29259C7.29234 5.3416 7.40496 4.81373 7.60859 4.33335ZM7.29234 10.16V8.92308C9.70183 8.69821 11.2482 7.63459 12.1324 6.75947C12.7473 7.59934 13.7744 8.57758 15.3255 8.87421V10.16C15.3255 12.3177 13.6151 14.0828 11.4788 14.1723C11.4264 14.1709 11.3742 14.1689 11.3218 14.1682C11.3133 14.1681 11.3047 14.1681 11.2962 14.1682C11.2437 14.1689 11.1914 14.1708 11.1392 14.1723C9.00283 14.0828 7.29234 12.3177 7.29234 10.16ZM10.8661 18.9817H11.7518L12.8413 23.711L11.3089 25.1135L9.77658 23.711L10.8661 18.9817ZM10.193 16.1347C10.2648 16.1248 10.3365 16.1132 10.4085 16.1049C10.4093 16.1048 10.4102 16.1047 10.4111 16.1047C10.5511 16.0888 10.6913 16.0767 10.8316 16.067C10.8534 16.0655 10.8754 16.0644 10.8973 16.063C10.9917 16.0573 11.0862 16.0545 11.1806 16.0518C11.2234 16.0527 11.2658 16.055 11.3089 16.055C11.3521 16.055 11.3943 16.0527 11.4372 16.0518C11.5316 16.0545 11.6262 16.0574 11.7204 16.063C11.7423 16.0643 11.7642 16.0655 11.7861 16.067C11.9264 16.0765 12.0668 16.0887 12.2068 16.1047C12.2076 16.1048 12.2083 16.1049 12.2091 16.1049C12.2812 16.1132 12.3528 16.1248 12.4248 16.1347L11.9263 17.1032H10.6914L10.193 16.1347ZM20.7397 27.5241H1.87836V25.1339C1.87836 22.7753 2.88724 20.5179 4.7191 18.7773C5.75235 17.7955 6.99047 17.0508 8.31383 16.5883L9.1262 18.1665L7.82309 23.8231C7.74709 24.153 7.85459 24.4983 8.10421 24.7268L10.6748 27.0795C10.8543 27.2437 11.0816 27.3259 11.3089 27.3259C11.5362 27.3259 11.7637 27.2437 11.9429 27.0795L14.5136 24.7268C14.7633 24.4983 14.8707 24.1529 14.7947 23.8231L13.4916 18.1665L14.3038 16.5884C15.6273 17.051 16.8653 17.7958 17.8987 18.7774C19.7305 20.5179 20.7394 22.7753 20.7394 25.1339V27.5241H20.7397Z" transform="translate(16.6598 15.2021)" fill="#FFBF01"/>
    <path d="M44.601 7.97402C44.5291 7.51715 44.1355 7.18053 43.673 7.18053C34.8429 7.18053 23.1228 0.204562 23.0056 0.134062C22.7081 -0.0446871 22.3358 -0.0446871 22.0382 0.134062C21.9208 0.204562 10.2095 7.18053 1.37105 7.18053C0.908673 7.18053 0.514925 7.51715 0.443175 7.97402C0.424926 8.09065 -0.00544802 10.8768 5.19524e-05 15.0747C0.000676949 15.5931 0.42105 16.0127 0.939172 16.0127C0.939547 16.0127 0.940048 16.0127 0.940423 16.0127C1.45917 16.0121 1.87917 15.591 1.87842 15.0722C1.87479 12.2946 2.07304 10.1308 2.19842 9.04139C5.98702 8.88352 10.5474 7.6574 15.7707 5.39129C18.9977 3.99117 21.5083 2.60705 22.5219 2.02655C23.5354 2.60692 26.0462 3.99117 29.2732 5.39129C34.4963 7.65752 39.0567 8.88352 42.845 9.04164C43.1116 11.3715 43.7068 18.6267 41.961 26.4622C41.8481 26.9686 42.1671 27.4704 42.6735 27.5833C42.7422 27.5987 42.811 27.6059 42.8786 27.6059C43.3088 27.6059 43.697 27.3083 43.7946 26.8708C45.9836 17.0462 44.6585 8.3399 44.601 7.97402Z" transform="translate(5.44678 6.11816)" fill="#FFBF01"/>
    <path d="M42.2313 11.1221C41.7347 10.9729 41.2108 11.2543 41.0614 11.7511C39.5308 16.842 37.1437 21.1379 33.9663 24.5191C30.8749 27.809 26.9873 30.2716 22.4079 31.842C15.3072 29.4076 9.93759 24.8664 6.44486 18.3403C3.83512 13.4642 2.29825 7.58984 1.87676 0.880374C1.84426 0.362627 1.39801 -0.0306213 0.880387 0.00187852C0.362639 0.0343784 -0.0307338 0.4805 0.00189107 0.998248C0.440389 7.97846 2.05076 14.1113 4.78862 19.2268C8.56422 26.2814 14.3923 31.1591 22.1114 33.7246C22.2075 33.7565 22.3077 33.7726 22.4077 33.7726C22.5077 33.7726 22.6078 33.7566 22.7038 33.7246C27.7113 32.0603 31.961 29.3961 35.335 25.8058C38.7133 22.2108 41.2452 17.664 42.8602 12.2921C43.0097 11.7952 42.7281 11.2714 42.2313 11.1221Z" transform="translate(5.56091 23.8423)" fill="#FFBF01"/>
    <path d="M55.3775 9.78339C55.3057 9.32652 54.912 8.98989 54.4496 8.98989C43.3274 8.98989 28.5997 0.222561 28.4524 0.134062C28.1547 -0.0446873 27.7826 -0.0446873 27.485 0.134062C27.3375 0.222686 12.6099 8.99002 1.48774 8.99002C1.02524 8.99002 0.631622 9.32664 0.559872 9.78351C0.491247 10.2204 -1.09312 20.6227 1.39574 32.561C2.86474 39.6071 5.45997 45.701 9.10921 50.6733C13.6882 56.9124 19.9337 61.38 27.6722 63.952C27.7684 63.9839 27.8685 64 27.9685 64C28.0685 64 28.1686 63.984 28.2647 63.952C36.0033 61.38 42.2489 56.9124 46.8278 50.6733C50.477 45.701 53.0722 39.6072 54.5412 32.561C57.0307 20.6226 55.4462 10.2204 55.3775 9.78339ZM52.7026 32.1775C51.2889 38.9587 48.8028 44.8076 45.3137 49.5617C41.0279 55.4012 35.1938 59.608 27.9687 62.0694C20.7539 59.6113 14.9251 55.4122 10.6413 49.5854C7.15196 44.8395 4.66385 39.0001 3.24573 32.2297C1.19637 22.4451 2.00049 13.4895 2.31349 10.8541C7.06609 10.6934 12.8159 9.16189 19.4222 6.29566C23.585 4.48954 26.7914 2.70567 27.9689 2.02743C29.1462 2.70567 32.3527 4.48967 36.5154 6.29566C43.1218 9.16189 48.8719 10.6933 53.6246 10.8541C53.9379 13.483 54.7411 22.4003 52.7026 32.1775Z" fill="#FFBF01"/>
</svg>
