<svg width="54" height="60" viewBox="0 0 54 60" fill="none" xmlns="http://www.w3.org/2000/svg">
    <path d="M45.9582 4.71479C45.8709 4.42205 45.6545 4.18518 45.3708 4.07194L35.371 0.0720463C34.8584 -0.133448 34.2763 0.11567 34.0708 0.628281C34.0233 0.746778 33.9989 0.873399 33.9991 1.00102V14.0007H27.9992C27.447 14.0007 26.9993 14.4484 26.9993 15.0006V27.0003H14.9996C14.4474 27.0003 13.9996 27.448 13.9996 28.0003V40H0.999973C0.447738 40 0 40.4477 0 40.9999V58.9994C0 59.5517 0.447738 59.9994 0.999973 59.9994C1.55221 59.9994 1.99995 59.5517 1.99995 58.9994V41.9999H14.9996C15.5518 41.9999 15.9996 41.5522 15.9996 40.9999V29.0003H27.9992C28.5515 29.0003 28.9992 28.5525 28.9992 28.0003V16.0006H42.9988V58.9994C42.9988 59.5517 43.4466 59.9994 43.9988 59.9994C44.551 59.9994 44.9988 59.5517 44.9988 58.9994V15.0006C44.9988 14.4484 44.551 14.0007 43.9988 14.0007H35.999V8.74468L45.2858 5.95876C45.815 5.80101 46.1161 5.24403 45.9582 4.71479ZM35.999 6.65674V2.47786L41.9688 4.86579L35.999 6.65674Z" transform="translate(7.99976)" fill="#FEC326"/>
    <path d="M45.9582 4.71479C45.8709 4.42205 45.6545 4.18518 45.3708 4.07194L35.371 0.0720463C34.8584 -0.133448 34.2763 0.11567 34.0708 0.628281C34.0233 0.746778 33.9989 0.873399 33.9991 1.00102V14.0007H27.9992C27.447 14.0007 26.9993 14.4484 26.9993 15.0006V27.0003H14.9996C14.4474 27.0003 13.9996 27.448 13.9996 28.0003V40H0.999973C0.447738 40 0 40.4477 0 40.9999V58.9994C0 59.5517 0.447738 59.9994 0.999973 59.9994C1.55221 59.9994 1.99995 59.5517 1.99995 58.9994V41.9999H14.9996C15.5518 41.9999 15.9996 41.5522 15.9996 40.9999V29.0003H27.9992C28.5515 29.0003 28.9992 28.5525 28.9992 28.0003V16.0006H42.9988V58.9994C42.9988 59.5517 43.4466 59.9994 43.9988 59.9994C44.551 59.9994 44.9988 59.5517 44.9988 58.9994V15.0006C44.9988 14.4484 44.551 14.0007 43.9988 14.0007H35.999V8.74468L45.2858 5.95876C45.815 5.80101 46.1161 5.24403 45.9582 4.71479ZM35.999 6.65674V2.47786L41.9688 4.86579L35.999 6.65674Z" transform="translate(7.99976)" stroke="black"/>
    <path d="M0.999972 0C0.447738 0 0 0.447737 0 0.999972V3.99989C0 4.55212 0.447738 4.99986 0.999972 4.99986C1.55221 4.99986 1.99995 4.55212 1.99995 3.99989V0.999972C1.99995 0.447737 1.55233 0 0.999972 0Z" transform="translate(0 54.9995)" fill="#FEC326"/>
    <path d="M0.999972 0C0.447738 0 0 0.447737 0 0.999972V3.99989C0 4.55212 0.447738 4.99986 0.999972 4.99986C1.55221 4.99986 1.99995 4.55212 1.99995 3.99989V0.999972C1.99995 0.447737 1.55233 0 0.999972 0Z" transform="translate(0 54.9995)" stroke="black"/>
    <path d="M33.7061 3.28791L30.7062 0.287992C30.7013 0.283177 30.6957 0.28008 30.6901 0.277015C30.6852 0.274351 30.6803 0.271713 30.6762 0.267993C30.5909 0.184245 30.4913 0.116622 30.3822 0.067998C30.3742 0.067998 30.3652 0.067998 30.3562 0.0619981C30.2544 0.0237492 30.1469 0.00274997 30.0382 0C30.0062 0 29.9752 0 29.9382 0.00500002C29.8517 0.00974989 29.7663 0.0262492 29.6842 0.0539985C29.6762 0.0567509 29.6682 0.0593781 29.6603 0.0619897C29.6367 0.0698151 29.6134 0.0775009 29.5902 0.0879975C29.4788 0.135871 29.3772 0.20362 29.2902 0.287992L26.2903 3.28791C25.9067 3.68515 25.9177 4.31826 26.3149 4.70187C26.7024 5.07611 27.3167 5.07611 27.7042 4.70187L28.9992 3.40891V11.9947H14.9996C14.4474 11.9947 13.9996 12.4424 13.9996 12.9946V25.9943H0.999972C0.447738 25.9943 0 26.442 0 26.9943V44.9938C0 45.546 0.447738 45.9937 0.999972 45.9937C1.55221 45.9937 1.99995 45.546 1.99995 44.9938V27.9942H14.9996C15.5518 27.9942 15.9996 27.5465 15.9996 26.9943V13.9946H29.9992C30.5514 13.9946 30.9991 13.5469 30.9991 12.9946V3.40891L32.2921 4.70187C32.6894 5.08561 33.3223 5.07461 33.7061 4.67737C34.0804 4.28988 34.0804 3.6754 33.7061 3.28791Z" transform="translate(0 7.00586)" fill="#FEC326"/>
    <path d="M33.7061 3.28791L30.7062 0.287992C30.7013 0.283177 30.6957 0.28008 30.6901 0.277015C30.6852 0.274351 30.6803 0.271713 30.6762 0.267993C30.5909 0.184245 30.4913 0.116622 30.3822 0.067998C30.3742 0.067998 30.3652 0.067998 30.3562 0.0619981C30.2544 0.0237492 30.1469 0.00274997 30.0382 0C30.0062 0 29.9752 0 29.9382 0.00500002C29.8517 0.00974989 29.7663 0.0262492 29.6842 0.0539985C29.6762 0.0567509 29.6682 0.0593781 29.6603 0.0619897C29.6367 0.0698151 29.6134 0.0775009 29.5902 0.0879975C29.4788 0.135871 29.3772 0.20362 29.2902 0.287992L26.2903 3.28791C25.9067 3.68515 25.9177 4.31826 26.3149 4.70187C26.7024 5.07611 27.3167 5.07611 27.7042 4.70187L28.9992 3.40891V11.9947H14.9996C14.4474 11.9947 13.9996 12.4424 13.9996 12.9946V25.9943H0.999972C0.447738 25.9943 0 26.442 0 26.9943V44.9938C0 45.546 0.447738 45.9937 0.999972 45.9937C1.55221 45.9937 1.99995 45.546 1.99995 44.9938V27.9942H14.9996C15.5518 27.9942 15.9996 27.5465 15.9996 26.9943V13.9946H29.9992C30.5514 13.9946 30.9991 13.5469 30.9991 12.9946V3.40891L32.2921 4.70187C32.6894 5.08561 33.3223 5.07461 33.7061 4.67737C34.0804 4.28988 34.0804 3.6754 33.7061 3.28791Z" transform="translate(0 7.00586)" stroke="black"/>
    <path d="M8.99975 0H0.999973C0.447738 0 0 0.447737 0 0.999972C0 1.55221 0.447738 1.99994 0.999973 1.99994H8.99975C9.55199 1.99994 9.99973 1.55221 9.99973 0.999972C9.99973 0.447737 9.55211 0 8.99975 0Z" transform="translate(11.9996 43.9998)" fill="#FEC326"/>
    <path d="M8.99975 0H0.999973C0.447738 0 0 0.447737 0 0.999972C0 1.55221 0.447738 1.99994 0.999973 1.99994H8.99975C9.55199 1.99994 9.99973 1.55221 9.99973 0.999972C9.99973 0.447737 9.55211 0 8.99975 0Z" transform="translate(11.9996 43.9998)" stroke="black"/>
    <path d="M8.99975 0H0.999973C0.447738 0 0 0.447737 0 0.999972C0 1.55221 0.447738 1.99994 0.999973 1.99994H8.99975C9.55199 1.99994 9.99972 1.55221 9.99972 0.999972C9.99972 0.447737 9.55211 0 8.99975 0Z" transform="translate(25.9993 31)" fill="#FEC326"/>
    <path d="M8.99975 0H0.999973C0.447738 0 0 0.447737 0 0.999972C0 1.55221 0.447738 1.99994 0.999973 1.99994H8.99975C9.55199 1.99994 9.99972 1.55221 9.99972 0.999972C9.99972 0.447737 9.55211 0 8.99975 0Z" transform="translate(25.9993 31)" stroke="black"/>
    <path d="M8.99975 0H0.999971C0.447736 0 0 0.447737 0 0.999972C0 1.55221 0.447736 1.99994 0.999971 1.99994H8.99975C9.55199 1.99994 9.99972 1.55221 9.99972 0.999972C9.99972 0.447737 9.55211 0 8.99975 0Z" transform="translate(38.9989 18.0005)" fill="#FEC326"/>
    <path d="M8.99975 0H0.999971C0.447736 0 0 0.447737 0 0.999972C0 1.55221 0.447736 1.99994 0.999971 1.99994H8.99975C9.55199 1.99994 9.99972 1.55221 9.99972 0.999972C9.99972 0.447737 9.55211 0 8.99975 0Z" transform="translate(38.9989 18.0005)" stroke="black"/>
</svg>
