<svg width="212" height="255" viewBox="0 0 212 255" fill="none" xmlns="http://www.w3.org/2000/svg">
    <path d="M121.559 64.6008C116.239 55.7514 94.9583 50.4417 86.0915 50.4417C55.9443 50.4417 34.6639 71.6803 31.1172 91.149C28.4571 84.0695 26.6838 76.1051 26.6838 67.2556C26.6838 37.1676 47.0774 0 97.6182 0C141.952 0 158.799 23.0085 165.006 23.0085C172.099 23.0085 179.193 15.929 184.513 15.929C192.493 15.929 192.493 27.4333 192.493 36.2827C192.493 63.7159 180.08 111.503 149.046 129.202C143.726 117.697 132.199 104.423 114.465 96.4587C110.032 94.6888 107.372 90.2641 107.372 85.8394C106.485 78.7599 113.579 69.0255 121.559 64.6008ZM17.817 115.042C35.5506 132.741 51.5108 139.821 71.0178 139.821C78.9979 139.821 87.8647 138.051 92.2981 138.051C98.5049 138.051 102.938 140.706 102.938 146.015C102.938 153.98 95.8448 166.369 87.8647 172.564C95.8448 176.103 105.598 176.988 114.465 176.988C153.479 176.988 198.7 152.21 198.7 90.2641C206.68 100.883 212 123.892 212 134.511C212 209.731 157.026 238.934 105.598 238.934C71.9044 238.934 55.9444 228.315 51.511 228.315C38.2108 228.315 39.0972 254.863 30.2304 253.978C14.2702 251.324 0.0833441 215.926 0.0833441 178.758C-0.803337 155.75 5.40343 132.741 17.817 115.042Z" transform="translate(-0.000610352 0.284668)" fill="white" fill-opacity="0.25"/>
</svg>
