<svg width="388" height="343" viewBox="0 0 388 343" fill="none" xmlns="http://www.w3.org/2000/svg">
    <path d="M298.386 46.3228C298.386 57.1643 307.249 65.049 318.081 65.049C328.914 65.049 337.777 56.1787 337.777 46.3228C337.777 35.4813 328.914 26.611 318.081 26.611C307.249 26.611 298.386 35.4813 298.386 46.3228ZM173.32 215.844C173.32 161.637 42.3451 147.839 42.3451 135.026C42.3451 125.17 115.218 108.415 152.64 107.429C94.5381 33.5101 12.802 41.3948 12.802 28.5821C12.802 20.6974 73.8578 5.91357 130.975 5.91357C178.244 5.91357 223.543 16.755 223.543 53.2219C223.543 72.9337 207.787 93.6311 207.787 125.17C207.787 141.925 216.65 156.709 238.315 156.709C261.949 156.709 267.858 131.084 267.858 104.473C267.858 81.8041 263.919 65.049 263.919 54.2075C263.919 21.683 285.584 -3.00778e-05 317.096 -3.00778e-05C343.685 -3.00778e-05 349.594 11.827 388 11.827C367.32 24.6397 359.442 46.3228 359.442 57.1643C359.442 89.6888 380.122 111.372 380.122 177.406C380.122 298.634 266.873 342 127.036 342C88.6294 342 48.2537 339.043 7.87811 333.13C1.96948 332.144 6.01057e-05 331.159 6.01057e-05 327.216C6.01057e-05 317.36 54.1625 311.447 54.1625 262.167C54.1625 242.455 48.2538 224.715 48.2538 217.816C48.2538 213.873 51.2082 211.902 54.1625 211.902C65.9798 211.902 88.6294 256.254 131.959 256.254C144.761 255.268 173.32 251.326 173.32 215.844ZM303.31 137.983C303.31 205.988 253.086 258.225 163.472 273.009C173.32 273.994 183.168 273.994 192.031 273.994C297.401 273.994 335.807 226.686 335.807 186.277C335.807 164.594 323.005 144.882 303.31 137.983Z" transform="translate(0 0.284302)" fill="url(#paint0_linear)" fill-opacity="0.25"/>
    <defs>
        <linearGradient id="paint0_linear" x2="1" gradientUnits="userSpaceOnUse" gradientTransform="translate(491.24 -129) scale(594.48 524) rotate(90)">
            <stop stop-color="#FEC227"/>
            <stop offset="0.98895" stop-color="white"/>
        </linearGradient>
    </defs>
</svg>
